<?xml version="1.0" standalone="no"?>
<!DOCTYPE svg PUBLIC "-//W3C//DTD SVG 20010904//EN"
 "http://www.w3.org/TR/2001/REC-SVG-20010904/DTD/svg10.dtd">
<svg version="1.0" xmlns="http://www.w3.org/2000/svg"
 width="500.000000pt" height="500.000000pt" viewBox="0 0 500.000000 500.000000"
 preserveAspectRatio="xMidYMid meet">

<g transform="translate(0.000000,500.000000) scale(0.100000,-0.100000)"
fill="#000000" stroke="none">
<path d="M1732 3761 c-87 -24 -103 -32 -94 -48 6 -10 17 -10 47 -2 59 17 179
6 262 -23 132 -47 273 -167 431 -367 l82 -103 0 -755 c0 -676 -2 -759 -16
-789 -24 -51 -68 -77 -136 -82 -41 -3 -58 -9 -58 -18 0 -12 48 -14 275 -14
238 0 275 2 275 15 0 11 -12 15 -47 15 -56 1 -102 23 -135 65 l-23 30 -2 695
c-2 660 -2 694 15 675 107 -126 1420 -1572 1487 -1638 214 -211 390 -297 607
-297 106 0 228 25 228 46 0 12 -13 14 -72 8 -57 -5 -93 -1 -161 15 -183 44
-317 144 -543 408 l-114 132 0 773 0 773 23 39 c26 47 94 86 149 86 21 0 38 5
38 10 0 6 -98 10 -275 10 -177 0 -275 -4 -275 -10 0 -5 17 -10 38 -10 80 -1
152 -55 172 -130 6 -24 9 -283 8 -719 l-3 -681 -675 752 c-797 887 -811 902
-915 983 -171 132 -245 164 -409 171 -90 3 -125 1 -184 -15z"/>
<path d="M800 3463 c-19 -2 -141 -21 -270 -43 -129 -21 -266 -41 -305 -45 -38
-4 -78 -9 -87 -11 -34 -10 -18 -24 27 -24 62 0 111 -22 135 -62 20 -32 20 -48
20 -796 0 -630 -2 -768 -14 -796 -21 -49 -77 -88 -136 -94 -33 -3 -50 -9 -50
-18 0 -12 51 -14 290 -14 239 0 290 2 290 14 0 9 -17 15 -50 18 -59 6 -115 45
-136 94 -12 28 -14 167 -12 841 l3 808 130 23 c222 39 354 22 476 -61 113 -76
166 -189 176 -372 15 -294 -120 -490 -348 -503 -129 -7 -231 43 -281 141 -22
42 -28 48 -34 33 -13 -34 25 -125 70 -171 62 -62 136 -87 267 -93 169 -7 276
33 375 141 94 102 141 218 151 377 18 306 -137 532 -408 594 -70 16 -223 27
-279 19z"/>
</g>
</svg>
