<?xml version="1.0" encoding="UTF-8"?>
<svg xmlns="http://www.w3.org/2000/svg" xmlns:xlink="http://www.w3.org/1999/xlink" width="70px" height="37px" viewBox="0 0 70 37" version="1.1">
<g id="surface1">
<path style=" stroke:none;fill-rule:nonzero;fill:rgb(0%,0%,0%);fill-opacity:1;" d="M 15.46875 7.859375 C 16.039062 8.429688 16.039062 13.949219 15.46875 14.523438 C 15.121094 14.894531 15.171875 14.917969 16.160156 14.917969 C 17.003906 14.894531 17.128906 14.84375 16.804688 14.644531 C 16.410156 14.421875 16.359375 13.972656 16.359375 11.191406 L 16.359375 7.957031 L 17.328125 7.957031 C 18.492188 7.957031 19.085938 8.453125 19.085938 9.472656 C 19.085938 10.367188 18.292969 11.191406 17.425781 11.191406 C 16.507812 11.191406 16.878906 11.464844 17.820312 11.488281 C 19.261719 11.539062 20.226562 10.019531 19.679688 8.578125 C 19.410156 7.90625 18.195312 7.460938 16.609375 7.460938 C 15.21875 7.460938 15.121094 7.484375 15.46875 7.859375 Z M 15.46875 7.859375 "/>
<path style=" stroke:none;fill-rule:nonzero;fill:rgb(0%,0%,0%);fill-opacity:1;" d="M 24.789062 10.765625 C 24.042969 12.582031 23.226562 14.246094 23.003906 14.472656 C 22.582031 14.894531 22.605469 14.917969 23.425781 14.917969 C 24.070312 14.917969 24.242188 14.820312 24.144531 14.546875 C 24.070312 14.347656 24.117188 13.800781 24.292969 13.304688 C 24.5625 12.433594 24.589844 12.433594 26.050781 12.433594 C 27.488281 12.433594 27.515625 12.433594 27.886719 13.351562 C 28.109375 13.851562 28.207031 14.421875 28.160156 14.597656 C 28.058594 14.820312 28.28125 14.917969 28.953125 14.917969 C 29.523438 14.917969 29.746094 14.84375 29.546875 14.71875 C 29.375 14.597656 28.578125 12.980469 27.785156 11.089844 C 26.992188 9.226562 26.300781 7.632812 26.25 7.585938 C 26.175781 7.535156 25.53125 8.976562 24.789062 10.765625 Z M 27.117188 11.363281 C 27.292969 11.910156 27.242188 11.933594 26.078125 11.933594 L 24.835938 11.933594 L 25.480469 10.292969 L 26.125 8.679688 L 26.546875 9.746094 C 26.769531 10.34375 27.042969 11.066406 27.117188 11.363281 Z M 27.117188 11.363281 "/>
<path style=" stroke:none;fill-rule:nonzero;fill:rgb(0%,0%,0%);fill-opacity:1;" d="M 33.238281 8.105469 C 32.941406 8.480469 32.71875 8.976562 32.71875 9.25 C 32.71875 9.523438 33.390625 10.445312 34.207031 11.289062 C 35.816406 12.980469 36.117188 13.925781 35.199219 14.421875 C 34.40625 14.84375 33.390625 14.621094 33.066406 13.972656 C 32.867188 13.550781 32.746094 13.503906 32.644531 13.75 C 32.445312 14.273438 32.792969 14.644531 33.6875 14.917969 C 34.679688 15.191406 35.519531 14.894531 36.089844 14.074219 C 36.6875 13.128906 36.363281 12.332031 34.828125 10.890625 C 33.4375 9.597656 33.089844 8.679688 33.761719 8.007812 C 34.183594 7.585938 35.097656 7.632812 35.546875 8.105469 C 35.917969 8.453125 35.941406 8.453125 35.941406 7.980469 C 35.941406 7.535156 35.792969 7.460938 34.851562 7.460938 C 33.957031 7.460938 33.660156 7.585938 33.238281 8.105469 Z M 33.238281 8.105469 "/>
<path style=" stroke:none;fill-rule:nonzero;fill:rgb(0%,0%,0%);fill-opacity:1;" d="M 39.164062 7.980469 C 39.164062 8.453125 39.1875 8.453125 39.5625 8.105469 C 39.785156 7.882812 40.355469 7.707031 40.925781 7.707031 L 41.890625 7.707031 L 41.890625 11.164062 C 41.890625 13.699219 41.816406 14.671875 41.59375 14.746094 C 41.421875 14.820312 41.71875 14.894531 42.261719 14.894531 C 43.007812 14.917969 43.15625 14.84375 42.933594 14.621094 C 42.734375 14.421875 42.632812 13.253906 42.632812 11.015625 L 42.632812 7.707031 L 43.601562 7.707031 C 44.171875 7.707031 44.742188 7.882812 44.964844 8.105469 C 45.335938 8.453125 45.359375 8.453125 45.359375 7.980469 C 45.359375 7.484375 45.238281 7.460938 42.261719 7.460938 C 39.289062 7.460938 39.164062 7.484375 39.164062 7.980469 Z M 39.164062 7.980469 "/>
<path style=" stroke:none;fill-rule:nonzero;fill:rgb(0%,0%,0%);fill-opacity:1;" d="M 51.113281 7.957031 C 50.070312 10.667969 48.285156 14.546875 48.039062 14.71875 C 47.839844 14.84375 48.011719 14.917969 48.507812 14.917969 C 49.078125 14.917969 49.277344 14.820312 49.179688 14.597656 C 49.128906 14.421875 49.226562 13.851562 49.449219 13.351562 C 49.824219 12.433594 49.847656 12.433594 51.285156 12.433594 C 52.746094 12.433594 52.773438 12.433594 53.046875 13.304688 C 53.21875 13.800781 53.269531 14.347656 53.195312 14.546875 C 53.09375 14.84375 53.292969 14.917969 54.085938 14.917969 C 54.980469 14.917969 55.054688 14.871094 54.707031 14.597656 C 54.457031 14.445312 53.617188 12.730469 52.820312 10.816406 C 51.484375 7.683594 51.308594 7.386719 51.113281 7.957031 Z M 51.980469 10.445312 L 52.523438 11.933594 L 51.285156 11.933594 C 50.617188 11.933594 50.070312 11.886719 50.070312 11.835938 C 50.070312 11.539062 51.160156 8.953125 51.285156 8.953125 C 51.359375 8.953125 51.683594 9.621094 51.980469 10.445312 Z M 51.980469 10.445312 "/>
<path style=" stroke:none;fill-rule:nonzero;fill:rgb(0%,0%,0%);fill-opacity:1;" d="M 8.921875 22.925781 C 8.921875 25.613281 8.847656 26.605469 8.625 26.679688 C 8.453125 26.753906 8.675781 26.828125 9.148438 26.828125 C 9.816406 26.855469 9.914062 26.804688 9.691406 26.507812 C 9.492188 26.28125 9.417969 25.261719 9.46875 23.574219 L 9.542969 20.988281 L 14.996094 26.855469 L 15.070312 23.449219 C 15.09375 21.460938 15.246094 19.917969 15.417969 19.71875 C 15.617188 19.46875 15.515625 19.394531 14.847656 19.394531 C 14.203125 19.394531 14.105469 19.46875 14.328125 19.695312 C 14.527344 19.890625 14.625 20.910156 14.625 22.652344 L 14.625 25.3125 L 12.46875 23.050781 C 11.304688 21.78125 10.015625 20.441406 9.617188 20.015625 L 8.921875 19.269531 Z M 8.921875 22.925781 "/>
<path style=" stroke:none;fill-rule:nonzero;fill:rgb(0%,0%,0%);fill-opacity:1;" d="M 21.441406 19.644531 C 19.605469 20.390625 18.789062 23.101562 19.804688 25.066406 C 20.425781 26.257812 21.539062 26.90625 23.027344 26.929688 C 25.308594 26.953125 26.820312 25.4375 26.820312 23.148438 C 26.796875 20.761719 25.457031 19.394531 23.175781 19.421875 C 22.507812 19.421875 21.714844 19.519531 21.441406 19.644531 Z M 24.515625 20.015625 C 25.878906 20.714844 26.496094 23.472656 25.65625 25.113281 C 24.441406 27.476562 21.019531 26.980469 20.324219 24.320312 C 19.484375 21.210938 21.9375 18.675781 24.515625 20.015625 Z M 24.515625 20.015625 "/>
<path style=" stroke:none;fill-rule:nonzero;fill:rgb(0%,0%,0%);fill-opacity:1;" d="M 30.738281 19.890625 C 29.84375 20.789062 30.09375 21.632812 31.726562 23.25 C 33.289062 24.816406 33.539062 25.488281 32.769531 26.183594 C 32.074219 26.828125 31.109375 26.707031 30.511719 25.910156 C 30.042969 25.289062 30.019531 25.289062 29.992188 25.761719 C 29.992188 26.507812 30.585938 26.90625 31.703125 26.953125 C 32.992188 26.980469 33.710938 26.332031 33.710938 25.140625 C 33.710938 24.367188 33.511719 24.019531 32.445312 23 C 30.761719 21.335938 30.613281 21.011719 31.109375 20.242188 C 31.554688 19.542969 32.371094 19.46875 33.015625 20.066406 C 33.4375 20.441406 33.464844 20.441406 33.464844 19.941406 C 33.464844 19.46875 33.3125 19.394531 32.347656 19.394531 C 31.554688 19.394531 31.082031 19.542969 30.738281 19.890625 Z M 30.738281 19.890625 "/>
<path style=" stroke:none;fill-rule:nonzero;fill:rgb(0%,0%,0%);fill-opacity:1;" d="M 36.6875 19.917969 C 36.6875 20.390625 36.710938 20.390625 37.082031 20.042969 C 37.304688 19.816406 37.875 19.644531 38.445312 19.644531 L 39.414062 19.644531 L 39.414062 22.949219 C 39.414062 25.1875 39.3125 26.359375 39.113281 26.554688 C 38.890625 26.78125 39.039062 26.855469 39.808594 26.828125 C 40.328125 26.828125 40.625 26.753906 40.476562 26.679688 C 40.230469 26.605469 40.15625 25.636719 40.15625 23.101562 L 40.15625 19.644531 L 41.121094 19.644531 C 41.691406 19.644531 42.261719 19.816406 42.484375 20.042969 C 42.859375 20.390625 42.882812 20.390625 42.882812 19.917969 C 42.882812 19.421875 42.757812 19.394531 39.785156 19.394531 C 36.808594 19.394531 36.6875 19.421875 36.6875 19.917969 Z M 36.6875 19.917969 "/>
<path style=" stroke:none;fill-rule:nonzero;fill:rgb(0%,0%,0%);fill-opacity:1;" d="M 46.179688 19.769531 C 46.773438 20.363281 46.800781 25.859375 46.203125 26.457031 C 45.855469 26.828125 45.90625 26.855469 46.898438 26.855469 C 47.742188 26.828125 47.863281 26.78125 47.542969 26.582031 C 47.144531 26.359375 47.097656 25.910156 47.097656 23.125 L 47.097656 19.890625 L 48.0625 19.890625 C 49.152344 19.890625 49.824219 20.539062 49.824219 21.558594 C 49.824219 22.328125 48.980469 23.125 48.1875 23.125 C 47.542969 23.125 47.542969 23.125 48.039062 23.546875 C 48.3125 23.796875 48.882812 24.492188 49.328125 25.113281 C 50.144531 26.308594 50.863281 26.828125 51.683594 26.855469 C 52.101562 26.855469 52.078125 26.78125 51.507812 26.40625 C 50.589844 25.808594 48.707031 23.375 49.179688 23.375 C 49.722656 23.375 50.566406 22.15625 50.566406 21.382812 C 50.566406 21.011719 50.34375 20.441406 50.09375 20.117188 C 49.699219 19.617188 49.351562 19.519531 47.691406 19.445312 C 45.882812 19.34375 45.78125 19.371094 46.179688 19.769531 Z M 46.179688 19.769531 "/>
<path style=" stroke:none;fill-rule:nonzero;fill:rgb(0%,0%,0%);fill-opacity:1;" d="M 57.804688 19.890625 C 56.761719 22.601562 54.980469 26.480469 54.730469 26.65625 C 54.53125 26.78125 54.707031 26.855469 55.203125 26.855469 C 55.773438 26.855469 55.96875 26.753906 55.871094 26.53125 C 55.820312 26.359375 55.921875 25.785156 56.144531 25.289062 C 56.515625 24.367188 56.539062 24.367188 57.976562 24.367188 C 59.441406 24.367188 59.464844 24.367188 59.738281 25.238281 C 59.910156 25.734375 59.960938 26.28125 59.886719 26.480469 C 59.789062 26.78125 59.984375 26.855469 60.777344 26.855469 C 61.671875 26.855469 61.746094 26.804688 61.398438 26.53125 C 61.152344 26.382812 60.308594 24.667969 59.515625 22.753906 C 58.175781 19.617188 58.003906 19.320312 57.804688 19.890625 Z M 58.671875 22.378906 L 59.21875 23.871094 L 57.976562 23.871094 C 57.308594 23.871094 56.761719 23.820312 56.761719 23.773438 C 56.761719 23.472656 57.855469 20.886719 57.976562 20.886719 C 58.050781 20.886719 58.375 21.558594 58.671875 22.378906 Z M 58.671875 22.378906 "/>
</g>
</svg>
