<?xml version="1.0" standalone="no"?>
<!DOCTYPE svg PUBLIC "-//W3C//DTD SVG 20010904//EN"
 "http://www.w3.org/TR/2001/REC-SVG-20010904/DTD/svg10.dtd">
<svg version="1.0" xmlns="http://www.w3.org/2000/svg"
 width="500.000000pt" height="500.000000pt" viewBox="0 0 500.000000 500.000000"
 preserveAspectRatio="xMidYMid meet">

<g transform="translate(0.000000,500.000000) scale(0.100000,-0.100000)"
fill="#000000" stroke="none">
<path d="M1960 2993 c-47 -113 -90 -214 -97 -224 -7 -9 -23 -20 -36 -22 -12
-2 10 -5 48 -5 52 -1 65 1 53 9 -24 13 -23 28 6 94 l25 55 84 0 84 0 22 -56
c26 -68 26 -80 4 -93 -13 -8 1 -10 57 -10 49 0 68 3 55 9 -32 12 -37 22 -126
235 -45 110 -85 203 -88 207 -3 3 -44 -86 -91 -199z m87 -71 c-38 -2 -72 0
-75 3 -3 3 12 48 33 101 l38 97 37 -99 37 -99 -70 -3z"/>
<path d="M2513 3190 c-28 -11 -63 -66 -63 -98 0 -39 25 -74 104 -145 70 -62
76 -72 76 -107 0 -51 -25 -80 -77 -87 -35 -5 -45 -2 -67 20 -14 14 -26 35 -26
47 0 11 -4 20 -10 20 -5 0 -10 -18 -10 -39 0 -36 3 -40 40 -55 103 -41 190 10
190 110 0 33 -10 46 -90 128 -73 75 -90 98 -90 122 0 38 36 74 75 74 16 0 39
-10 52 -22 l23 -21 0 25 c0 18 -7 27 -22 32 -32 8 -79 6 -105 -4z"/>
<path d="M2850 3165 c1 -25 2 -27 11 -12 8 14 24 17 79 17 l70 0 0 -205 c0
-204 0 -206 -22 -215 -17 -6 -5 -9 47 -9 52 0 64 3 48 9 -23 9 -23 11 -23 215
l0 205 70 0 c64 0 72 -2 80 -22 8 -20 9 -19 9 12 l1 35 -185 0 -185 0 0 -30z"/>
<path d="M3500 2993 c-47 -113 -90 -214 -97 -224 -7 -9 -23 -20 -36 -22 -12
-2 10 -5 48 -5 52 -1 65 1 53 9 -24 13 -23 28 6 94 l25 55 84 0 84 0 22 -56
c26 -68 26 -80 4 -93 -13 -8 1 -10 57 -10 49 0 68 3 55 9 -32 12 -37 22 -126
235 -45 110 -85 203 -88 207 -3 3 -44 -86 -91 -199z m87 -71 c-38 -2 -72 0
-75 3 -3 3 12 48 33 101 l38 97 37 -99 37 -99 -70 -3z"/>
<path d="M1380 3177 l25 -13 0 -199 0 -199 -25 -13 c-22 -11 -17 -13 50 -13
67 0 72 2 50 13 l-25 13 -3 202 -2 202 49 0 c64 0 79 -6 96 -41 38 -72 -1
-153 -78 -166 l-42 -6 30 -9 c43 -12 112 16 136 56 36 59 14 142 -46 170 -44
21 -256 24 -215 3z"/>
<path d="M998 2276 c3 -107 1 -207 -2 -221 -4 -14 -17 -30 -29 -35 -16 -6 -5
-9 43 -9 49 0 59 3 43 9 -23 9 -23 12 -23 180 l0 170 173 -184 172 -183 5 220
c5 208 6 220 25 228 13 5 -3 8 -45 8 -59 1 -63 -1 -40 -12 l25 -13 2 -169 3
-170 -58 60 c-31 33 -111 118 -177 188 l-121 129 4 -196z"/>
<path d="M1776 2456 c-61 -23 -89 -47 -118 -106 -59 -114 -25 -252 77 -315 43
-27 57 -30 124 -30 83 0 116 13 165 61 49 50 61 82 61 169 0 70 -4 86 -28 127
-37 64 -98 99 -180 104 -39 3 -76 -1 -101 -10z m169 -29 c128 -71 125 -319 -5
-384 -83 -43 -176 -19 -227 58 -52 79 -42 239 20 297 60 56 143 68 212 29z"/>
<path d="M2348 2453 c-33 -21 -48 -53 -48 -101 0 -32 9 -45 80 -115 113 -111
123 -136 71 -188 -51 -51 -130 -28 -149 44 l-9 32 -4 -31 c-8 -51 5 -72 53
-84 82 -23 145 6 169 77 17 53 -2 89 -96 178 -95 89 -105 116 -60 160 38 39
106 29 125 -18 7 -19 9 -17 9 14 1 30 -3 38 -21 43 -41 11 -92 6 -120 -11z"/>
<path d="M2690 2430 c0 -34 0 -34 16 -12 13 19 24 22 85 22 l69 0 -2 -202 -3
-202 -25 -13 c-22 -11 -17 -13 50 -13 67 0 72 2 50 13 l-25 13 -3 202 -2 202
69 0 c61 0 72 -3 85 -22 16 -22 16 -22 16 12 l0 35 -190 0 -190 0 0 -35z"/>
<path d="M3921 2293 c-106 -254 -109 -261 -139 -272 -22 -8 -14 -9 43 -9 39 0
62 2 53 5 -24 6 -23 29 4 97 l21 57 86 -3 85 -3 25 -64 c24 -62 25 -64 6 -77
-17 -12 -10 -14 56 -13 60 0 69 2 47 10 -23 9 -38 36 -103 192 -43 100 -85
199 -94 220 l-16 38 -74 -178z m108 -3 c18 -50 31 -93 28 -96 -2 -3 -36 -4
-75 -2 l-70 3 37 92 c20 51 38 93 41 93 3 0 21 -41 39 -90z"/>
<path d="M3262 2453 c26 -7 29 -30 26 -233 l-3 -184 -25 -13 c-22 -11 -17 -13
50 -13 67 0 72 2 50 13 l-25 13 -3 202 -2 202 49 0 c27 0 57 -3 66 -6 38 -15
60 -119 32 -155 -18 -24 -52 -39 -89 -39 l-33 0 22 -18 c13 -9 47 -50 75 -91
64 -90 91 -111 149 -117 38 -4 41 -3 19 6 -36 16 -55 36 -120 121 l-58 75 28
11 c59 22 87 111 55 173 -25 48 -61 60 -177 59 -57 -1 -95 -3 -86 -6z"/>
</g>
</svg>
